<svg width="55" height="65" viewBox="0 0 55 65" fill="none" xmlns="http://www.w3.org/2000/svg">
<path d="M9.03234 38.1967C9.03234 38.125 9.03234 37.9817 8.96067 37.91L6.66729 34.3266C6.52395 34.0399 6.09394 34.1116 6.02227 34.3983L0.0737951 55.5404C-0.212878 56.5438 0.360469 57.6188 1.36383 57.9055L24.5127 64.4273C24.8711 64.499 25.3011 64.499 25.7311 64.3556L49.31 53.8921C49.8116 53.677 50.17 53.247 50.3133 52.817L54.9001 40.1317C55.0434 39.7017 55.0434 39.2 54.8284 38.6984C54.6134 38.1967 54.3984 37.6233 54.1118 37.1217C53.0367 34.7566 52.0334 32.3915 50.9583 30.0265C49.74 27.2314 48.45 24.4364 47.2316 21.6413C46.7299 20.5663 46.2999 19.5629 45.8699 18.4879C45.7266 18.2012 45.5832 17.6995 45.4399 17.4845C45.0099 16.8395 44.6515 18.2729 44.4365 18.6312L43.9348 19.4912C43.8632 19.6346 43.7915 19.7062 43.7198 19.8496C43.5765 20.0646 43.3615 20.2079 43.2182 20.3513C42.9315 20.5663 42.7881 20.9963 42.9315 21.2829L50.385 38.125C50.6 38.555 50.6 39.0567 50.385 39.5584C50.2417 39.9884 49.8833 40.4184 49.3816 40.5617L43.3615 43.2135C43.3615 43.2851 43.3615 43.2851 43.2898 43.3568L45.8699 49.2336C46.2999 50.1653 45.8699 51.2403 44.9382 51.6703L27.6661 59.2672C27.4511 59.3388 27.1644 59.4105 26.8778 59.4105C26.6628 59.4105 26.4478 59.4105 26.2328 59.2672C25.8027 59.1238 25.3727 58.7655 25.2294 58.2638L10.1074 24.3647C9.89236 23.9347 9.89236 23.433 10.1074 22.9313C10.2507 22.5013 10.609 22.0713 11.1107 21.928L27.4511 14.6895C27.8095 14.5461 28.0245 14.1161 27.8095 13.7578C27.5945 13.2561 27.5945 12.7544 27.7378 12.1811C27.8095 12.0377 27.8095 11.8227 27.9528 11.6794L28.5261 10.7477C28.6695 10.461 29.0278 10.031 28.4545 10.031C28.1678 10.031 27.8811 10.246 27.5945 10.3893C27.0928 10.6044 26.5911 10.8194 26.1611 11.0344C23.5094 12.2527 20.8576 13.3994 18.1342 14.6178C15.4108 15.8361 12.6158 17.0545 9.89236 18.2729C8.60233 18.8462 7.38397 19.4196 6.09394 19.9929C5.66393 20.2079 5.30559 20.5663 5.09058 21.0679C4.94725 21.5696 4.94724 22.0713 5.16225 22.5013L21.7176 59.7689L6.23727 55.3971C5.9506 55.3254 5.7356 55.1821 5.52059 55.0387C5.37725 54.8954 5.23392 54.7521 5.09058 54.5371C4.87558 54.1071 4.80391 53.6054 4.94724 53.1037L9.03234 38.1967Z" fill="#262161"/>
<path d="M30.2462 13.3279L34.7613 15.6929L32.2529 20.423C32.1812 20.4947 32.1812 20.638 32.1812 20.7097L32.6829 23.6481C32.6829 23.8631 32.9696 23.8631 33.0412 23.6481L36.6963 16.7679L41.2114 19.133C41.4264 19.2763 41.7848 19.2047 41.9281 18.918V18.8463L42.1431 18.488L42.4298 17.9146C43.2181 16.4096 42.8598 15.6213 42.5014 14.1162C42.4298 13.9729 42.5014 13.7579 42.5731 13.6145L44.7232 9.52944C44.8665 9.1711 45.2965 9.02776 45.6549 9.24277L46.1565 9.52944C46.5149 9.74444 46.9449 9.60111 47.0882 9.24277L48.4499 6.73437C48.6649 6.37603 48.5216 5.94602 48.1632 5.80268L37.413 0.0692134C37.0546 -0.0741234 36.6246 -0.00245492 36.4813 0.355887L35.1913 2.86428C35.0479 3.22262 35.1196 3.65263 35.4779 3.79597L35.9796 4.08264C36.338 4.29765 36.4813 4.65599 36.2663 5.01433L34.1162 9.09943C34.0446 9.24277 33.9012 9.3861 33.7579 9.3861C32.2529 9.95945 31.4645 10.0311 30.6045 11.6078L30.2462 12.1812L30.0311 12.5395V12.6112C29.8878 12.8979 30.0311 13.1845 30.2462 13.3279Z" fill="#262161"/>
<path d="M28.4052 22.2408L16.0708 27.8391L17.5518 31.1022L29.8862 25.5039L28.4052 22.2408Z" fill="#262161"/>
<path d="M39.6382 26.6045L19.7988 35.6069L21.2795 38.87L41.1189 29.8675L39.6382 26.6045Z" fill="#262161"/>
<path d="M43.032 35.1137L24.1964 43.73L25.6871 46.9887L44.5227 38.3725L43.032 35.1137Z" fill="#262161"/>
</svg>
