<svg width="29" height="25" viewBox="0 0 29 25" fill="none" xmlns="http://www.w3.org/2000/svg">
<path fill-rule="evenodd" clip-rule="evenodd" d="M29 12.5C29 12.9735 28.8091 13.4276 28.4692 13.7625C28.1293 14.0973 27.6684 14.2854 27.1877 14.2854H6.19042L13.9724 21.9483C14.1409 22.1143 14.2746 22.3114 14.3658 22.5282C14.457 22.7451 14.5039 22.9776 14.5039 23.2124C14.5039 23.4471 14.457 23.6796 14.3658 23.8965C14.2746 24.1133 14.1409 24.3104 13.9724 24.4764C13.8039 24.6424 13.6039 24.7741 13.3837 24.8639C13.1636 24.9538 12.9276 25 12.6893 25C12.451 25 12.2151 24.9538 11.9949 24.8639C11.7748 24.7741 11.5747 24.6424 11.4062 24.4764L0.53243 13.7641C0.363657 13.5982 0.229754 13.4012 0.138391 13.1843C0.0470277 12.9674 0 12.7348 0 12.5C0 12.2652 0.0470277 12.0326 0.138391 11.8157C0.229754 11.5988 0.363657 11.4018 0.53243 11.2359L11.4062 0.52359C11.7465 0.188341 12.2081 0 12.6893 0C13.1706 0 13.6321 0.188341 13.9724 0.52359C14.3127 0.858839 14.5039 1.31353 14.5039 1.78765C14.5039 2.26176 14.3127 2.71646 13.9724 3.05171L6.19042 10.7146H27.1877C27.6684 10.7146 28.1293 10.9027 28.4692 11.2375C28.8091 11.5724 29 12.0265 29 12.5Z" fill="white"/>
</svg>
