<svg width="67" height="67" viewBox="0 0 67 67" fill="none" xmlns="http://www.w3.org/2000/svg">
<rect width="67" height="67" rx="8" fill="#F0AD4E"/>
<rect x="0.25" y="0.25" width="66.5" height="66.5" rx="7.75" stroke="black" stroke-opacity="0.5" stroke-width="0.5"/>
<path d="M47.4005 11H34.948C30.1985 11 26.3485 14.85 26.3485 19.5995V29.1685H28.3435V19.5995C28.3435 15.958 31.306 12.9955 34.9475 12.9955H47.4005C51.042 12.9955 54.0045 15.958 54.0045 19.5995V24.921C54.0045 28.5625 51.042 31.525 47.4005 31.525H34.1625C33.431 31.525 32.7435 31.81 32.227 32.327L30.486 34.068C30.8045 34.7225 31.05 35.4215 31.2315 36.144L33.6375 33.738C33.7765 33.599 33.9655 33.5205 34.1625 33.5205H47.4005C52.15 33.52 56 29.67 56 24.9205V19.5995C56 14.85 52.15 11 47.4005 11Z" fill="white"/>
<path d="M40.7315 25.4241C40.264 25.4241 39.875 25.5616 39.5655 25.8361C39.2555 26.1106 39.101 26.4526 39.101 26.8621C39.101 27.2596 39.256 27.6046 39.5655 27.8966C39.8755 28.1771 40.264 28.3176 40.7315 28.3176C41.199 28.3176 41.585 28.1801 41.889 27.9056C42.187 27.6311 42.336 27.2831 42.336 26.8621C42.336 26.4471 42.184 26.1051 41.88 25.8361C41.576 25.5616 41.1935 25.4241 40.7315 25.4241Z" fill="white"/>
<path d="M43.59 21.0355C43.824 20.7985 44.0195 20.552 44.1775 20.2945C44.3355 20.0375 44.455 19.764 44.537 19.4745C44.619 19.185 44.6595 18.862 44.6595 18.5055C44.6595 17.9445 44.5615 17.4635 44.366 17.063C44.1705 16.6625 43.8985 16.334 43.5505 16.0765C43.2025 15.819 42.795 15.631 42.3275 15.511C41.86 15.391 41.354 15.3315 40.8105 15.3315C40.2435 15.3315 39.694 15.3985 39.162 15.533C38.63 15.6675 38.139 15.869 37.689 16.138V18.777C38.1275 18.391 38.592 18.1035 39.083 17.9135C39.574 17.7235 40.0475 17.6285 40.5035 17.6285C40.714 17.6285 40.9055 17.6605 41.078 17.725C41.2505 17.7895 41.3965 17.877 41.5165 17.988C41.6365 18.099 41.7285 18.232 41.7925 18.387C41.8565 18.542 41.889 18.71 41.889 18.891C41.889 19.1015 41.86 19.293 41.8015 19.4655C41.743 19.638 41.6555 19.8045 41.5385 19.9655C41.4215 20.1265 41.28 20.287 41.113 20.448C40.9465 20.6085 40.752 20.7825 40.53 20.9695C40.3195 21.145 40.1355 21.3215 39.9775 21.5C39.8195 21.6785 39.688 21.8655 39.583 22.061C39.478 22.257 39.399 22.466 39.346 22.688C39.2935 22.91 39.267 23.1555 39.267 23.4245C39.267 23.594 39.283 23.774 39.315 23.9635C39.347 24.1535 39.3925 24.3245 39.451 24.4765H41.757C41.6925 24.377 41.6415 24.2545 41.6035 24.108C41.5655 23.962 41.5465 23.8185 41.5465 23.6785C41.5465 23.474 41.573 23.291 41.6255 23.1305C41.678 22.97 41.7555 22.818 41.858 22.6745C41.9605 22.5315 42.089 22.3865 42.244 22.2405C42.399 22.0945 42.5785 21.9365 42.783 21.767C43.087 21.5165 43.356 21.2725 43.59 21.0355Z" fill="white"/>
<path d="M29.211 31.6309C29.2275 31.4969 29.239 31.3609 29.239 31.2224H28.8255H23.568C23.4995 31.2224 23.434 31.2334 23.368 31.2429C23.348 31.2429 23.329 31.2394 23.309 31.2394C19.931 31.2394 17.179 34.5694 17.095 38.6994C16.48 38.7904 16.0065 39.3154 16.0065 39.9559V41.1169C16.0065 42.5764 17.152 43.7654 18.592 43.8419C18.64 43.9109 18.684 43.9834 18.734 44.0504L19.924 45.6429C20.2525 46.0829 20.075 46.7144 19.5655 46.9189L17.72 47.6584C13.978 49.1574 11.4995 51.8804 11.007 54.9364C10.9525 55.2734 11.2215 55.5774 11.563 55.5774H35.7685C36.1115 55.5774 36.38 55.2714 36.3245 54.9329C35.8 51.7559 33.0955 48.9059 29.137 47.4774L27.2525 46.7969C26.7335 46.6094 26.5355 45.9799 26.8535 45.5289L28.009 43.8919C28.02 43.8764 28.0295 43.8594 28.0405 43.8434C29.4955 43.7824 30.6575 42.5869 30.6575 41.1169V39.9559C30.6575 39.2999 30.1605 38.7664 29.524 38.6949C29.485 36.8309 28.903 35.1339 27.9635 33.8294C28.637 33.3029 29.101 32.5229 29.211 31.6309Z" fill="white"/>
</svg>
