<svg width="14" height="23" viewBox="0 0 14 23" fill="none" xmlns="http://www.w3.org/2000/svg">
<path d="M7 1.875C7.74261 1.875 8.4548 2.16473 8.9799 2.68046C9.505 3.19618 9.8 3.89565 9.8 4.625V10.125H4.2V4.625C4.2 3.89565 4.495 3.19618 5.0201 2.68046C5.5452 2.16473 6.25739 1.875 7 1.875ZM11.2 10.125V4.625C11.2 3.53098 10.7575 2.48177 9.96985 1.70818C9.1822 0.934597 8.11391 0.5 7 0.5C5.88609 0.5 4.8178 0.934597 4.03015 1.70818C3.2425 2.48177 2.8 3.53098 2.8 4.625V10.125C2.05739 10.125 1.3452 10.4147 0.820101 10.9305C0.294999 11.4462 0 12.1457 0 12.875V19.75C0 20.4793 0.294999 21.1788 0.820101 21.6945C1.3452 22.2103 2.05739 22.5 2.8 22.5H11.2C11.9426 22.5 12.6548 22.2103 13.1799 21.6945C13.705 21.1788 14 20.4793 14 19.75V12.875C14 12.1457 13.705 11.4462 13.1799 10.9305C12.6548 10.4147 11.9426 10.125 11.2 10.125Z" fill="#0F0F0F"/>
</svg>
