<svg width="37" height="37" viewBox="0 0 37 37" fill="none" xmlns="http://www.w3.org/2000/svg">
<path d="M30.9141 2.45626L27.319 3.07495L33.1574 37.0001L36.7524 36.3814L30.9141 2.45626Z" fill="#262161"/>
<path d="M0 28.8753H7.29589V0H0V28.8753Z" fill="#262161"/>
<path d="M0 30.9304V36.9932H7.29589V30.9304H0Z" fill="#262161"/>
<path d="M8.32346 36.9932H18.2911V9.24829H8.32346V36.9932ZM14.3349 16.1845C14.3349 15.8249 14.6431 15.5166 15.0028 15.5166C15.3625 15.5166 15.6707 15.8249 15.6707 16.1845V29.3377C15.6707 29.6973 15.3625 30.0056 15.0028 30.0056C14.6431 30.0056 14.3349 29.6973 14.3349 29.3377V16.1845ZM10.9438 13.2559C10.9438 12.8962 11.2521 12.588 11.6117 12.588C11.9714 12.588 12.2797 12.8962 12.2797 13.2559V32.3177C12.2797 32.6774 11.9714 32.9856 11.6117 32.9856C11.2521 32.9856 10.9438 32.6774 10.9438 32.3177V13.2559Z" fill="#262161"/>
<path d="M19.4214 5.60024H26.6145C26.6659 5.60024 26.6659 5.60024 26.7173 5.60024V2.56885H19.4214V5.60024Z" fill="#262161"/>
<path d="M19.4214 7.604V8.83711H26.6145C26.6659 8.83711 26.6659 8.83711 26.7173 8.83711V7.604C26.6659 7.604 26.6659 7.604 26.6145 7.604H19.4214Z" fill="#262161"/>
<path d="M19.4214 10.8924V36.9932H26.7173V10.8411C26.6659 10.8411 26.6659 10.8411 26.6145 10.8411H19.4214V10.8924Z" fill="#262161"/>
</svg>
