<svg width="28" height="22" viewBox="0 0 28 22" fill="none" xmlns="http://www.w3.org/2000/svg">
<path d="M18.5693 19.1171L15.9021 16.4483C14.8707 16.8171 13.7558 16.8854 12.6871 16.6452C11.6183 16.4051 10.6398 15.8665 9.86524 15.0919C9.0907 14.3174 8.55203 13.3388 8.31191 12.2701C8.07178 11.2014 8.14007 10.0864 8.50884 9.05502L5.10468 5.65087C2.28882 8.15441 0.73877 11 0.73877 11C0.73877 11 5.69628 20.0888 13.9588 20.0888C15.5459 20.0833 17.115 19.7526 18.5693 19.1171ZM9.34831 2.88293C10.8026 2.24741 12.3717 1.91672 13.9588 1.91125C22.2213 1.91125 27.1788 11 27.1788 11C27.1788 11 25.6271 13.844 22.8145 16.3508L19.4071 12.9434C19.7759 11.9119 19.8441 10.797 19.604 9.72829C19.3639 8.65957 18.8252 7.68101 18.0507 6.90647C17.2761 6.13193 16.2976 5.59326 15.2289 5.35314C14.1601 5.11301 13.0452 5.1813 12.0138 5.55007L9.34831 2.88293Z" fill="black" fill-opacity="0.25"/>
<path d="M9.86893 10.415C9.77803 11.0501 9.83629 11.6976 10.0391 12.3063C10.2419 12.9149 10.5836 13.468 11.0373 13.9216C11.4909 14.3752 12.044 14.717 12.6526 14.9198C13.2613 15.1226 13.9088 15.1808 14.5439 15.0899L9.86893 10.415ZM18.0488 11.585L13.3739 6.9084C14.009 6.8175 14.6565 6.87576 15.2651 7.07855C15.8738 7.28134 16.4268 7.6231 16.8805 8.07674C17.3341 8.53038 17.6759 9.08344 17.8787 9.69209C18.0815 10.3007 18.1397 10.9483 18.0488 11.5833V11.585ZM23.2889 21.5L3.45888 1.66997L4.62885 0.5L24.4589 20.33L23.2889 21.5Z" fill="black" fill-opacity="0.25"/>
</svg>
