<svg width="40" height="56" viewBox="0 0 40 56" fill="none" xmlns="http://www.w3.org/2000/svg">
<rect x="0.00195312" width="40.0019" height="56" rx="2.13318" fill="#DEF4FF"/>
<path fill-rule="evenodd" clip-rule="evenodd" d="M11.0594 11.0575C11.1833 10.9333 11.3304 10.8348 11.4924 10.7676C11.6543 10.7004 11.828 10.6658 12.0033 10.6658C12.1787 10.6658 12.3524 10.7004 12.5143 10.7676C12.6763 10.8348 12.8234 10.9333 12.9473 11.0575L28.9461 27.0563C29.0703 27.1801 29.1688 27.3273 29.236 27.4892C29.3032 27.6512 29.3378 27.8249 29.3378 28.0002C29.3378 28.1756 29.3032 28.3492 29.236 28.5112C29.1688 28.6732 29.0703 28.8203 28.9461 28.9442L12.9473 44.943C12.6969 45.1933 12.3574 45.334 12.0033 45.334C11.6493 45.334 11.3098 45.1933 11.0594 44.943C10.8091 44.6927 10.6684 44.3531 10.6684 43.9991C10.6684 43.645 10.8091 43.3055 11.0594 43.0551L26.117 28.0002L11.0594 12.9453C10.9353 12.8215 10.8367 12.6744 10.7695 12.5124C10.7023 12.3504 10.6677 12.1768 10.6677 12.0014C10.6677 11.826 10.7023 11.6524 10.7695 11.4904C10.8367 11.3284 10.9353 11.1813 11.0594 11.0575Z" fill="black"/>
</svg>
