<svg width="20" height="36" viewBox="0 0 20 36" fill="none" xmlns="http://www.w3.org/2000/svg">
<path fill-rule="evenodd" clip-rule="evenodd" d="M1.05941 1.05746C1.18326 0.9333 1.33038 0.834793 1.49236 0.767581C1.65433 0.700369 1.82798 0.665771 2.00334 0.665771C2.17871 0.665771 2.35235 0.700369 2.51433 0.767581C2.67631 0.834793 2.82343 0.9333 2.94728 1.05746L18.9461 17.0563C19.0703 17.1801 19.1688 17.3273 19.236 17.4892C19.3032 17.6512 19.3378 17.8249 19.3378 18.0002C19.3378 18.1756 19.3032 18.3492 19.236 18.5112C19.1688 18.6732 19.0703 18.8203 18.9461 18.9442L2.94728 34.943C2.69693 35.1933 2.35739 35.334 2.00334 35.334C1.6493 35.334 1.30976 35.1933 1.05941 34.943C0.809066 34.6927 0.668423 34.3531 0.668423 33.9991C0.668423 33.645 0.809066 33.3055 1.05941 33.0551L16.117 18.0002L1.05941 2.94532C0.935253 2.82148 0.836745 2.67435 0.769533 2.51238C0.70232 2.3504 0.667725 2.17676 0.667725 2.00139C0.667725 1.82602 0.70232 1.65238 0.769533 1.49041C0.836745 1.32843 0.935253 1.18131 1.05941 1.05746Z" fill="black"/>
</svg>
