<svg width="40" height="56" viewBox="0 0 40 56" fill="none" xmlns="http://www.w3.org/2000/svg">
<rect width="40.0019" height="56" rx="2.13318" transform="matrix(-1 0 0 1 40.002 0)" fill="#DEF4FF"/>
<path fill-rule="evenodd" clip-rule="evenodd" d="M28.9445 11.0575C28.8206 10.9333 28.6735 10.8348 28.5115 10.7676C28.3496 10.7004 28.1759 10.6658 28.0006 10.6658C27.8252 10.6658 27.6516 10.7004 27.4896 10.7676C27.3276 10.8348 27.1805 10.9333 27.0566 11.0575L11.0578 27.0563C10.9336 27.1801 10.8351 27.3273 10.7679 27.4892C10.7007 27.6512 10.6661 27.8249 10.6661 28.0002C10.6661 28.1756 10.7007 28.3492 10.7679 28.5112C10.8351 28.6732 10.9336 28.8203 11.0578 28.9442L27.0566 44.943C27.307 45.1933 27.6465 45.334 28.0006 45.334C28.3546 45.334 28.6941 45.1933 28.9445 44.943C29.1948 44.6927 29.3355 44.3531 29.3355 43.9991C29.3355 43.645 29.1948 43.3055 28.9445 43.0551L13.8869 28.0002L28.9445 12.9453C29.0687 12.8215 29.1672 12.6744 29.2344 12.5124C29.3016 12.3504 29.3362 12.1768 29.3362 12.0014C29.3362 11.826 29.3016 11.6524 29.2344 11.4904C29.1672 11.3284 29.0687 11.1813 28.9445 11.0575Z" fill="black"/>
</svg>
