<svg width="21" height="22" viewBox="0 0 21 22" fill="none" xmlns="http://www.w3.org/2000/svg">
<path d="M10.5 12.3125C13.7607 12.3125 16.4062 9.66699 16.4062 6.40625C16.4062 3.14551 13.7607 0.5 10.5 0.5C7.23926 0.5 4.59375 3.14551 4.59375 6.40625C4.59375 9.66699 7.23926 12.3125 10.5 12.3125ZM15.75 13.625H13.49C12.5795 14.0434 11.5664 14.2812 10.5 14.2812C9.43359 14.2812 8.42461 14.0434 7.50996 13.625H5.25C2.3502 13.625 0 15.9752 0 18.875V19.5312C0 20.6182 0.881836 21.5 1.96875 21.5H19.0312C20.1182 21.5 21 20.6182 21 19.5312V18.875C21 15.9752 18.6498 13.625 15.75 13.625Z" fill="#0F0F0F"/>
</svg>
