<svg width="35" height="31" viewBox="0 0 35 31" fill="none" xmlns="http://www.w3.org/2000/svg">
<path opacity="0.5" fill-rule="evenodd" clip-rule="evenodd" d="M0 15.5C0 16.0872 0.230442 16.6503 0.640633 17.0655C1.05082 17.4806 1.60716 17.7139 2.18726 17.7139H27.5288L18.1367 27.2159C17.9334 27.4217 17.772 27.6661 17.662 27.935C17.5519 28.204 17.4953 28.4922 17.4953 28.7833C17.4953 29.0744 17.5519 29.3627 17.662 29.6316C17.772 29.9005 17.9334 30.1449 18.1367 30.3507C18.3401 30.5566 18.5815 30.7199 18.8472 30.8313C19.1129 30.9427 19.3977 31 19.6853 31C19.9729 31 20.2577 30.9427 20.5234 30.8313C20.7891 30.7199 21.0305 30.5566 21.2339 30.3507L34.3574 17.0674C34.5611 16.8618 34.7227 16.6175 34.833 16.3485C34.9432 16.0795 35 15.7912 35 15.5C35 15.2088 34.9432 14.9205 34.833 14.6515C34.7227 14.3825 34.5611 14.1382 34.3574 13.9326L21.2339 0.649252C20.8232 0.233543 20.2661 0 19.6853 0C19.1045 0 18.5474 0.233543 18.1367 0.649252C17.726 1.06496 17.4953 1.62878 17.4953 2.21668C17.4953 2.80458 17.726 3.36841 18.1367 3.78412L27.5288 13.2861H2.18726C1.60716 13.2861 1.05082 13.5194 0.640633 13.9345C0.230442 14.3497 0 14.9128 0 15.5Z" fill="#262161"/>
</svg>
