<svg width="37" height="28" viewBox="0 0 37 28" fill="none" xmlns="http://www.w3.org/2000/svg">
<path d="M33.5291 0H3.47089C1.55676 0 0 1.55676 0 3.47089V5.56616H37V3.47089C37 1.56166 35.4432 0 33.5291 0ZM25.8971 4.18563C25.1236 4.18563 24.497 3.55901 24.497 2.78553C24.497 2.01204 25.1236 1.38542 25.8971 1.38542C26.6705 1.38542 27.2972 2.01204 27.2972 2.78553C27.2972 3.55901 26.6705 4.18563 25.8971 4.18563ZM29.789 4.18563C29.0155 4.18563 28.3889 3.55901 28.3889 2.78553C28.3889 2.01204 29.0155 1.38542 29.789 1.38542C30.5624 1.38542 31.1891 2.01204 31.1891 2.78553C31.1891 3.55901 30.5624 4.18563 29.789 4.18563ZM33.6858 4.18563C32.9123 4.18563 32.2857 3.55901 32.2857 2.78553C32.2857 2.01204 32.9123 1.38542 33.6858 1.38542C34.4592 1.38542 35.0859 2.01204 35.0859 2.78553C35.0859 3.55901 34.4592 4.18563 33.6858 4.18563Z" fill="#262161"/>
<path d="M18.5 24.0322C22.2744 24.0322 25.3438 20.9628 25.3438 17.1835C25.3438 13.4091 22.2744 10.3396 18.5 10.3396C14.7256 10.3396 11.6561 13.4091 11.6561 17.1835C11.6561 20.9628 14.7256 24.0322 18.5 24.0322ZM15.9739 13.6587C15.9739 13.2573 16.4145 13.0076 16.7572 13.2181L22.5436 16.7478C22.8716 16.9485 22.8716 17.4282 22.5436 17.629L16.7572 21.1586C16.4145 21.3691 15.9739 21.1194 15.9739 20.718V13.6587Z" fill="#262161"/>
<path d="M0 24.5068C0 26.4209 1.55676 27.9777 3.47089 27.9777H33.5291C35.4432 27.9777 37 26.4209 37 24.5068V6.39355H0V24.5068ZM18.5 9.20356C22.901 9.20356 26.4845 12.787 26.4845 17.1881C26.4845 21.5891 22.901 25.1726 18.5 25.1726C14.099 25.1726 10.5155 21.5891 10.5155 17.1881C10.5155 12.787 14.099 9.20356 18.5 9.20356Z" fill="#262161"/>
</svg>
