<svg width="64" height="64" viewBox="0 0 64 64" fill="none" xmlns="http://www.w3.org/2000/svg">
<circle cx="32" cy="32" r="32" fill="#98DDCA"/>
<circle cx="32" cy="32" r="31.5" stroke="black" stroke-opacity="0.5"/>
<path d="M32.5 33.1875C36.6924 33.1875 40.0938 29.7861 40.0938 25.5938C40.0938 21.4014 36.6924 18 32.5 18C28.3076 18 24.9063 21.4014 24.9063 25.5938C24.9063 29.7861 28.3076 33.1875 32.5 33.1875ZM39.25 34.875H36.3443C35.1736 35.4129 33.8711 35.7188 32.5 35.7188C31.1289 35.7188 29.8316 35.4129 28.6557 34.875H25.75C22.0217 34.875 19 37.8967 19 41.625V42.4688C19 43.8662 20.1338 45 21.5313 45H43.4688C44.8662 45 46 43.8662 46 42.4688V41.625C46 37.8967 42.9783 34.875 39.25 34.875Z" fill="#0F0F0F"/>
</svg>
