<svg width="68" height="48" viewBox="0 0 68 48" fill="none" xmlns="http://www.w3.org/2000/svg">
<path opacity="0.5" d="M34.2189 0H34.5972C38.0909 0.0128125 55.7932 0.140939 60.5663 1.43073C62.0092 1.82437 63.3241 2.59164 64.3794 3.65588C65.4348 4.72011 66.1938 6.04403 66.5804 7.49533C67.0097 9.11825 67.3115 11.2665 67.5155 13.4831L67.558 13.9272L67.6515 15.0376L67.6855 15.4818C67.9617 19.3854 67.9958 23.0412 68 23.8398V24.1602C67.9958 24.9887 67.9575 28.8922 67.6515 32.9581L67.6175 33.4065L67.5792 33.8507C67.3667 36.2936 67.0522 38.7195 66.5804 40.5047C66.1949 41.9566 65.4364 43.2811 64.3808 44.3455C63.3253 45.4099 62.0098 46.1768 60.5663 46.5693C55.636 47.9018 36.8966 47.9957 34.2996 48H33.6961C32.3828 48 26.9509 47.9744 21.2556 47.7779L20.533 47.7523L20.1633 47.7352L19.4365 47.7053L18.7097 47.6754C13.9919 47.4661 9.49934 47.1287 7.42946 46.565C5.98646 46.1729 4.67132 45.4067 3.6158 44.3431C2.56029 43.2794 1.80146 41.9558 1.41534 40.5047C0.943559 38.7237 0.629039 36.2936 0.416526 33.8507L0.382524 33.4023L0.348522 32.9581C0.138761 30.0642 0.0225258 27.1642 0 24.2627L0 23.7373C0.00850053 22.8191 0.0425027 19.6459 0.272017 16.1438L0.301769 15.7039L0.31452 15.4818L0.348522 15.0376L0.442028 13.9272L0.48453 13.4831C0.688543 11.2665 0.990312 9.11398 1.41959 7.49533C1.80506 6.04345 2.5636 4.7189 3.61916 3.65448C4.67471 2.59007 5.9902 1.82319 7.43371 1.43073C9.50359 0.875523 13.9961 0.533855 18.7139 0.320313L19.4365 0.290417L20.1675 0.264793L20.533 0.25198L21.2598 0.222085C25.3048 0.0912881 29.3515 0.0186758 33.3986 0.00427104H34.2189V0ZM27.2017 13.7094V34.2863L44.8701 24.0021L27.2017 13.7094Z" fill="white"/>
</svg>
